<?xml version="1.0" encoding="utf-8"?>
<!-- Generator: Adobe Illustrator 24.1.1, SVG Export Plug-In . SVG Version: 6.00 Build 0)  -->
<svg version="1.1" id="Layer_1" xmlns="http://www.w3.org/2000/svg" xmlns:xlink="http://www.w3.org/1999/xlink" x="0px" y="0px"
	 viewBox="0 0 606 606" style="enable-background:new 0 0 606 606;" xml:space="preserve">
<style type="text/css">
	.st0{fill-rule:evenodd;clip-rule:evenodd;fill:#EE7674;stroke:#FFFFFF;stroke-miterlimit:10;}
	.st1{fill-rule:evenodd;clip-rule:evenodd;fill:#EE7674;stroke:#FFFFFF;stroke-width:4.04;}
	.st2{fill-rule:evenodd;clip-rule:evenodd;}
</style>
<g>
	<g transform="translate(3.000000, 3.000000)">
		<g>
			<g id="Shape">
				<g>
					<path id="path-2" class="st0" d="M552.3,552.3C600,504.5,600,431.5,600,300s0-204.5-47.7-252.3C504.5,0,431.5,0,300,0
						S95.5,0,47.7,47.7C0,95.5,0,168.5,0,300s0,204.5,47.7,252.3C95.5,600,168.5,600,300,600S504.5,600,552.3,552.3z"/>
				</g>
				<g>
					<path id="path-2_1_" class="st1" d="M552.3,552.3C600,504.5,600,431.5,600,300s0-204.5-47.7-252.3C504.5,0,431.5,0,300,0
						S95.5,0,47.7,47.7C0,95.5,0,168.5,0,300s0,204.5,47.7,252.3C95.5,600,168.5,600,300,600S504.5,600,552.3,552.3z"/>
				</g>
			</g>
		</g>
		<g id="Page-1">
			<g id="icon-40-clipboard-list">
				<path id="clipboard-list" class="st2" d="M277.8,136.3v-13.7c0-15,12.2-27.2,27.3-27.2h13.5c15.2,0,27.3,12.2,27.3,27.2v13.7
					h27.3c7.5,0,13.6,6.1,13.6,13.6v13.7c0,7.6-6.1,13.6-13.6,13.6H250.5c-7.5,0-13.6-6.1-13.6-13.6v-13.7c0-7.6,6.1-13.6,13.6-13.6
					H277.8L277.8,136.3z M264.1,122.7h-13.6c-15.1,0-27.3,12.2-27.3,27.3h-13.7c-15,0-27.2,12.1-27.2,27.3v286.3
					c0,15.1,12.2,27.3,27.2,27.3h204.7c15,0,27.2-12.1,27.2-27.3V177.3c0-15.1-12.2-27.3-27.2-27.3h-13.7l0,0
					c0-15.1-12.2-27.3-27.3-27.3h-13.6c0-22.6-18.4-40.9-41-40.9h-13.4C282.5,81.8,264.2,100,264.1,122.7L264.1,122.7L264.1,122.7z
					 M400.5,163.6h13.6c7.4,0,13.6,6.1,13.6,13.7v286.3c0,7.7-6.1,13.7-13.6,13.7H209.6c-7.4,0-13.6-6.1-13.6-13.7V177.3
					c0-7.7,6.1-13.7,13.6-13.7h13.6c0,15.1,12.2,27.3,27.3,27.3h122.7C388.3,190.9,400.5,178.7,400.5,163.6L400.5,163.6L400.5,163.6
					z M311.9,136.3c3.8,0,6.8-3.1,6.8-6.8c0-3.8-3.1-6.8-6.8-6.8s-6.8,3.1-6.8,6.8C305.1,133.3,308.1,136.3,311.9,136.3L311.9,136.3
					z M291.4,259.1v13.6h109.1v-13.6H291.4L291.4,259.1z M223.2,245.4v40.9h40.9v-40.9H223.2L223.2,245.4z M236.9,259.1v13.6h13.6
					v-13.6H236.9L236.9,259.1z M223.2,313.6v40.9h40.9v-40.9H223.2L223.2,313.6z M236.9,327.3v13.6h13.6v-13.6H236.9L236.9,327.3z
					 M291.4,327.3v13.6h109.1v-13.6H291.4L291.4,327.3z M223.2,381.8v40.9h40.9v-40.9H223.2L223.2,381.8z M236.9,395.5v13.6h13.6
					v-13.6H236.9L236.9,395.5z M291.4,395.5v13.6h109.1v-13.6H291.4L291.4,395.5z"/>
			</g>
		</g>
	</g>
</g>
</svg>
